<?xml version="1.0" encoding="utf-8"?>
<!-- Generator: Adobe Illustrator 17.0.0, SVG Export Plug-In . SVG Version: 6.00 Build 0)  -->
<!DOCTYPE svg PUBLIC "-//W3C//DTD SVG 1.1//EN" "http://www.w3.org/Graphics/SVG/1.1/DTD/svg11.dtd">
<svg version="1.1" id="Layer_1" xmlns="http://www.w3.org/2000/svg" xmlns:xlink="http://www.w3.org/1999/xlink" x="0px" y="0px"
	 width="58.109px" height="58.109px" viewBox="-3.305 -3.305 58.109 58.109" enable-background="new -3.305 -3.305 58.109 58.109"
	 xml:space="preserve">
<path fill="#FFFFFF" d="M25.75-3.305C9.704-3.305-3.305,9.704-3.305,25.75S9.704,54.805,25.75,54.805S54.805,41.796,54.805,25.75
	S41.796-3.305,25.75-3.305z M36.469,27.054c0,0.623-0.505,1.128-1.128,1.128h-7.158v7.158c0,0.623-0.505,1.128-1.128,1.128h-2.609
	c-0.623,0-1.128-0.505-1.128-1.128v-7.158h-7.158c-0.623,0-1.128-0.505-1.128-1.128v-2.609c0-0.623,0.505-1.128,1.128-1.128h7.158
	v-7.158c0-0.623,0.505-1.128,1.128-1.128h2.609c0.623,0,1.128,0.505,1.128,1.128v7.158h7.158c0.623,0,1.128,0.505,1.128,1.128
	V27.054z"/>
<rect x="11.125" y="11.125" fill="#FFFFFF" width="29.25" height="29.25"/>
<linearGradient id="SVGID_1_" gradientUnits="userSpaceOnUse" x1="281.5421" y1="-319.0421" x2="317.9579" y2="-355.4579" gradientTransform="matrix(1 0 0 -1 -274 -311.5)">
	<stop  offset="0" style="stop-color:#FC4D7C"/>
	<stop  offset="1" style="stop-color:#FC5845"/>
</linearGradient>
<path fill="url(#SVGID_1_)" d="M25.75,0C11.529,0,0,11.529,0,25.75S11.529,51.5,25.75,51.5S51.5,39.971,51.5,25.75S39.971,0,25.75,0
	z M35.25,26.906c0,0.552-0.448,1-1,1h-6.344v6.344c0,0.552-0.448,1-1,1h-2.312c-0.552,0-1-0.448-1-1v-6.344H17.25
	c-0.552,0-1-0.448-1-1v-2.312c0-0.552,0.448-1,1-1h6.344V17.25c0-0.552,0.448-1,1-1h2.312c0.552,0,1,0.448,1,1v6.344h6.344
	c0.552,0,1,0.448,1,1V26.906z"/>
<linearGradient id="SVGID_2_" gradientUnits="userSpaceOnUse" x1="318.6728" y1="-341.9304" x2="283.7231" y2="-321.7523" gradientTransform="matrix(1 0 0 -1 -274 -311.5)">
	<stop  offset="0" style="stop-color:#FFFFFF"/>
	<stop  offset="1" style="stop-color:#FFFFFF;stop-opacity:0.3"/>
</linearGradient>
<path opacity="0.2" fill="url(#SVGID_2_)" enable-background="new    " d="M25.75,4.125c-11.943,0-21.625,9.682-21.625,21.625h43.25
	C47.375,13.807,37.693,4.125,25.75,4.125z"/>
<linearGradient id="SVGID_3_" gradientUnits="userSpaceOnUse" x1="203.416" y1="-319.173" x2="239.832" y2="-355.589" gradientTransform="matrix(1 0 0 -1 -274 -311.5)">
	<stop  offset="0" style="stop-color:#FC4D7C"/>
	<stop  offset="1" style="stop-color:#FC5845"/>
</linearGradient>
<circle fill="url(#SVGID_3_)" cx="-52.376" cy="25.881" r="25.75"/>
<linearGradient id="SVGID_4_" gradientUnits="userSpaceOnUse" x1="206.3328" y1="-322.0898" x2="236.9152" y2="-352.6722" gradientTransform="matrix(1 0 0 -1 -274 -311.5)">
	<stop  offset="0" style="stop-color:#FC4D7C"/>
	<stop  offset="1" style="stop-color:#FC5845"/>
</linearGradient>
<circle fill="url(#SVGID_4_)" cx="-52.376" cy="25.881" r="21.625"/>
<linearGradient id="SVGID_5_" gradientUnits="userSpaceOnUse" x1="201.007" y1="-330.756" x2="242.007" y2="-371.756" gradientTransform="matrix(1 0 0 -1 -274 -311.5)">
	<stop  offset="0" style="stop-color:#FC4D7C"/>
	<stop  offset="1" style="stop-color:#FC5845"/>
</linearGradient>
<rect x="-79.618" y="25.881" fill="url(#SVGID_5_)" width="54.25" height="27.75"/>
<path fill="#FFFFFF" d="M166.648-20c-0.424,0-0.77,0.345-0.77,0.769v2.308c0,0.424,0.345,0.769,0.769,0.769s0.769-0.345,0.769-0.769
	v-2.308C167.417-19.655,167.071-20,166.648-20z"/>
<path fill="#FFFFFF" d="M175.878-20c-0.424,0-0.769,0.345-0.769,0.769v2.308c0,0.424,0.345,0.769,0.769,0.769
	s0.769-0.345,0.769-0.769v-2.308C176.648-19.655,176.302-20,175.878-20z"/>
<g>
	<polygon fill="#FFFFFF" points="28.363,68.163 28.363,83.733 31.845,83.733 31.845,77.491 37.494,77.491 37.494,74.599 
		31.845,74.599 31.845,71.052 37.89,71.052 37.89,68.163 	"/>
	<path fill="#FFFFFF" d="M46.166,72.169c-1.11,0-2.509,0.7-3.088,2.364h-0.066l-0.131-2.102h-3.023
		c0.068,0.97,0.066,2.08,0.066,3.744v7.554h3.547v-5.715c0-0.279,0.019-0.558,0.066-0.787c0.232-1.088,1.137-1.774,2.43-1.774
		c0.394,0,0.642,0.019,0.921,0.066v-3.285C46.633,72.189,46.488,72.169,46.166,72.169z"/>
</g>
<path fill="#FFFFFF" d="M145.277-20c-0.424,0-0.77,0.345-0.77,0.769v2.308c0,0.424,0.345,0.769,0.769,0.769s0.769-0.345,0.769-0.769
	v-2.308C146.046-19.655,145.7-20,145.277-20z"/>
<path fill="#FFFFFF" d="M154.507-20c-0.424,0-0.769,0.345-0.769,0.769v2.308c0,0.424,0.345,0.769,0.769,0.769
	s0.769-0.345,0.769-0.769v-2.308C155.277-19.655,154.931-20,154.507-20z"/>
<g>
	<path fill="#FFFFFF" d="M75.202,56.202c-3.654,0-5.911,2.003-5.911,4.665c0,2.266,1.746,3.739,4.337,4.665
		c1.872,0.648,2.629,1.197,2.629,2.167c0,1.019-0.877,1.708-2.495,1.708c-1.503,0-3.017-0.5-3.941-0.987l-0.656,2.892
		c0.88,0.486,2.621,0.987,4.403,0.987c4.277,0,6.242-2.249,6.242-4.862c0-2.197-1.254-3.649-4.007-4.665
		c-2.036-0.763-2.892-1.172-2.892-2.167c0-0.787,0.708-1.511,2.233-1.511c1.503,0,2.684,0.421,3.285,0.722l0.787-2.826
		C78.285,56.552,76.984,56.202,75.202,56.202z"/>
	<path fill="#FFFFFF" d="M91.691,69.345v-4.006c0.003-2.687-1.156-4.865-4.925-4.865c-2.058,0-3.616,0.547-4.403,0.987l0.656,2.298
		c0.741-0.462,1.932-0.853,3.088-0.853c1.735,0,2.102,0.82,2.102,1.446v0.131c-4.004,0-6.636,1.399-6.636,4.337
		c0,1.804,1.323,3.482,3.613,3.482c1.342,0,2.544-0.478,3.285-1.38h0.066l0.197,1.118h3.154
		C91.748,71.417,91.691,70.411,91.691,69.345z M88.277,67.962c0,0.205-0.019,0.405-0.066,0.59c-0.232,0.716-0.918,1.249-1.774,1.249
		c-0.787,0-1.446-0.413-1.446-1.315c0-1.339,1.435-1.774,3.285-1.774L88.277,67.962L88.277,67.962z"/>
</g>
<path fill="#FFFFFF" d="M58.094-20c-0.424,0-0.77,0.345-0.77,0.769v2.308c0,0.424,0.345,0.769,0.769,0.769s0.769-0.345,0.769-0.769
	v-2.308C58.863-19.655,58.517-20,58.094-20z"/>
<path fill="#FFFFFF" d="M67.324-20c-0.424,0-0.769,0.345-0.769,0.769v2.308c0,0.424,0.345,0.769,0.769,0.769
	c0.424,0,0.769-0.345,0.769-0.769v-2.308C68.094-19.655,67.748-20,67.324-20z"/>
<g>
	<path fill="#FFFFFF" d="M65.966,10.576c-3.657,0-5.911,2.003-5.911,4.665c0,2.266,1.746,3.739,4.337,4.665
		c1.872,0.648,2.564,1.197,2.564,2.167c0,1.019-0.809,1.708-2.43,1.708c-1.503,0-3.017-0.5-3.941-0.987l-0.722,2.892
		c0.88,0.486,2.687,0.987,4.468,0.987c4.277,0,6.242-2.249,6.242-4.862c0-2.197-1.254-3.649-4.007-4.665
		c-2.036-0.763-2.892-1.172-2.892-2.167c0-0.787,0.708-1.511,2.233-1.511c1.503,0,2.684,0.421,3.285,0.722l0.787-2.826
		C69.048,10.926,67.745,10.576,65.966,10.576z"/>
	<path fill="#FFFFFF" d="M72.798,15.11v6.636c0,3.493,1.694,4.928,4.007,4.928c2.036,0,3.107-1.145,3.547-1.839h0.066l0.131,1.577
		h3.088c-0.046-0.951-0.131-2.134-0.131-3.613v-7.685h-3.482v6.701c0,0.301-0.038,0.579-0.131,0.787
		c-0.208,0.558-0.804,1.249-1.774,1.249c-1.249,0-1.774-0.987-1.774-2.629V15.11H72.798z"/>
</g>
<path fill="#FFFFFF" d="M101.314-20c-0.424,0-0.77,0.345-0.77,0.769v2.308c0,0.424,0.345,0.769,0.769,0.769
	c0.424,0,0.769-0.345,0.769-0.769v-2.308C102.083-19.655,101.737-20,101.314-20z"/>
<path fill="#FFFFFF" d="M110.544-20c-0.424,0-0.769,0.345-0.769,0.769v2.308c0,0.424,0.345,0.769,0.769,0.769
	c0.424,0,0.769-0.345,0.769-0.769v-2.308C111.314-19.655,110.968-20,110.544-20z"/>
<g>
	<path fill="#FFFFFF" d="M82.385,76.825V93.25h3.482v-6.701c0-0.254,0.038-0.579,0.131-0.787c0.254-0.648,0.85-1.249,1.774-1.249
		c1.317,0,1.774,1.017,1.774,2.495v6.242h3.547v-6.57c0-3.422-1.7-4.993-3.941-4.993c-0.648,0-1.306,0.183-1.839,0.459
		c-0.555,0.279-1.008,0.675-1.38,1.183h-0.066v-6.505L82.385,76.825L82.385,76.825z"/>
	<polygon fill="#FFFFFF" points="68.917,77.68 68.917,80.637 73.12,80.637 73.12,93.25 76.602,93.25 76.602,80.637 80.874,80.637 
		80.874,77.68 	"/>
</g>
<path fill="#FFFFFF" d="M79.758-20c-0.424,0-0.77,0.345-0.77,0.769v2.308c0,0.424,0.345,0.769,0.769,0.769
	c0.424,0,0.769-0.345,0.769-0.769v-2.308C80.527-19.655,80.181-20,79.758-20z"/>
<path fill="#FFFFFF" d="M88.988-20c-0.424,0-0.769,0.345-0.769,0.769v2.308c0,0.424,0.345,0.769,0.769,0.769
	c0.424,0,0.769-0.345,0.769-0.769v-2.308C89.758-19.655,89.412-20,88.988-20z"/>
<g>
	<polygon fill="#FFFFFF" points="19.247,60.113 19.247,63.07 23.451,63.07 23.451,75.683 26.998,75.683 26.998,63.07 31.202,63.07 
		31.202,60.113 	"/>
	<path fill="#FFFFFF" d="M31.663,64.384v6.636c0,3.493,1.694,4.928,4.007,4.928c2.033,0,3.107-1.145,3.547-1.839h0.066l0.131,1.577
		h3.088c-0.046-0.951-0.131-2.134-0.131-3.613v-7.685H38.89v6.701c0,0.301-0.038,0.579-0.131,0.787
		c-0.208,0.558-0.804,1.249-1.774,1.249c-1.249,0-1.774-0.987-1.774-2.629v-6.111L31.663,64.384z"/>
</g>
<path fill="#FFFFFF" d="M123.283-20c-0.424,0-0.77,0.345-0.77,0.769v2.308c0,0.424,0.345,0.769,0.769,0.769
	c0.424,0,0.769-0.345,0.769-0.769v-2.308C124.052-19.655,123.706-20,123.283-20z"/>
<path fill="#FFFFFF" d="M132.513-20c-0.424,0-0.769,0.345-0.769,0.769v2.308c0,0.424,0.345,0.769,0.769,0.769
	s0.769-0.345,0.769-0.769v-2.308C133.283-19.655,132.937-20,132.513-20z"/>
<g>
	<path fill="#FFFFFF" d="M42.72,62.249l3.744,15.57v0.066h3.81l1.511-6.767c0.369-1.571,0.642-3.039,0.921-4.796
		c0.186,1.782,0.486,3.222,0.787,4.796l1.315,6.767h3.81l4.007-15.636h-3.613l-1.249,6.373c-0.322,1.875-0.689,3.72-0.921,5.452
		c-0.232-1.733-0.508-3.43-0.853-5.256l-1.246-6.57h-3.744l-1.315,6.373c-0.394,1.943-0.798,3.832-1.052,5.518
		c-0.254-1.571-0.574-3.58-0.921-5.452l-1.178-6.439L42.72,62.249L42.72,62.249z"/>
	<path fill="#FFFFFF" d="M73.467,71.91c0-2.801-1.405-5.652-5.059-5.652c-3.93,0-5.715,3.176-5.715,6.045
		c0,3.537,2.206,5.78,6.045,5.78c1.525,0,2.982-0.235,4.138-0.722l-0.459-2.364c-0.948,0.322-1.951,0.459-3.154,0.459
		c-1.643,0-3.061-0.711-3.154-2.167h7.226C73.382,73.036,73.467,72.511,73.467,71.91z M66.044,70.92
		c0.093-0.924,0.689-2.298,2.167-2.298c1.618,0,2.036,1.443,2.036,2.298H66.044z"/>
</g>
</svg>
