<?xml version="1.0" encoding="utf-8"?>
<!-- Generator: Adobe Illustrator 17.0.0, SVG Export Plug-In . SVG Version: 6.00 Build 0)  -->
<!DOCTYPE svg PUBLIC "-//W3C//DTD SVG 1.1//EN" "http://www.w3.org/Graphics/SVG/1.1/DTD/svg11.dtd">
<svg version="1.1" id="Layer_1" xmlns="http://www.w3.org/2000/svg" xmlns:xlink="http://www.w3.org/1999/xlink" x="0px" y="0px"
	 width="1187.604px" height="1187.604px" viewBox="0 0 1187.604 1187.604" enable-background="new 0 0 1187.604 1187.604"
	 xml:space="preserve">
<path fill="#FFFFFF" d="M686.16,0c6.015,1.463,12.109,2.662,18.033,4.431c52.18,15.584,87.82,49.222,107.788,99.6
	c7.677,19.368,10.664,39.705,10.62,60.502c-0.012,5.595-0.002,11.189-0.002,17.233c1.951,0,3.533,0,5.116,0
	c57.633,0,115.265-0.02,172.898,0.011c21.625,0.012,38.594,11.467,45.239,30.956c1.621,4.753,2.349,9.995,2.473,15.037
	c0.332,13.494,0.114,27.001,0.114,40.503c0,1.359,0,2.717,0,4.561c15.192,0,30.113,0,45.23,0c0,30.446,0,60.403,0,90.786
	c-30.169,0-60.214,0-90.761,0c0,2.253,0,4.086,0,5.92c0,224.28-0.051,448.559,0.056,672.839
	c0.016,33.081-9.536,62.724-30.398,88.394c-22.956,28.248-52.575,45.109-88.778,49.942c-6.296,0.841-12.696,1.261-19.048,1.263
	c-180.649,0.066-361.298,0.06-541.947,0.049c-60.793-0.003-113.139-38.082-131.818-95.83c-4.617-14.273-6.375-28.952-6.375-43.9
	c0.009-224.155,0.006-448.31,0.006-672.464c0-1.859,0-3.718,0-6.009c-30.326,0-60.38,0-90.67,0c0-30.477,0-60.52,0-91.003
	c15.141,0,30.077,0,45.399,0c0-2.525,0-4.616,0-6.708c0-12.502,0.433-25.022-0.094-37.501
	c-0.964-22.815,17.403-46.659,46.135-46.835c6.251-0.038,12.502-0.01,18.752-0.01c51.882,0,103.764,0,155.646,0
	c1.612,0,3.225,0,5.343,0c0-1.961,0.022-3.665-0.003-5.368c-0.26-17.638,0.241-35.172,4.439-52.474
	c8.006-32.991,24.349-61.03,49.419-83.853c23.094-21.025,50.123-34.202,80.988-39.377c0.581-0.097,1.117-0.457,1.675-0.695
	C563.143,0,624.651,0,686.16,0z M275.645,363.743c0,1.655,0,2.767,0,3.88c0,225.754-0.015,451.508,0.098,677.262
	c0.003,5.154,0.773,10.531,2.364,15.42c6.386,19.632,22.971,30.754,45.131,30.755c180.379,0.01,360.757,0.01,541.135-0.025
	c3.485-0.001,7.041-0.095,10.445-0.757c22.933-4.463,37.166-22.178,37.167-46.146c0.01-225.379,0.006-450.759,0.006-676.138
	c0-1.326,0-2.652,0-4.251c-2.085,0-3.688-0.015-5.29,0.002c-81.723,0.861-163.445-0.788-245.185,1.06
	c-51.803,1.171-103.681,0.369-155.547-0.674c-75.221-1.513-150.495-0.388-225.747-0.388
	C278.87,363.743,277.518,363.743,275.645,363.743z M459.026,181.459c90.09,0,179.871,0,269.207,0c0-9.532,0.583-18.797-0.104-27.966
	c-2.557-34.123-31.828-61.133-66.104-61.207c-45.374-0.099-90.75-0.312-136.12,0.085c-26.793,0.235-46.566,12.98-59.295,36.505
	C457.695,145.35,458.506,163.294,459.026,181.459z"/>
<path fill="#FFFFFF" d="M366.802,454.681c30.23,0,60.086,0,90.258,0c0,181.65,0,363.276,0,545.146c-30.018,0-60.045,0-90.258,0
	C366.802,818.121,366.802,636.581,366.802,454.681z"/>
<path fill="#FFFFFF" d="M638.928,999.872c-30.133,0-60.082,0-90.33,0c0-181.607,0-363.133,0-544.973c29.958,0,59.987,0,90.33,0
	C638.928,636.375,638.928,817.898,638.928,999.872z"/>
<path fill="#FFFFFF" d="M820.862,999.901c-30.153,0-60.103,0-90.328,0c0-181.658,0-363.201,0-545.03c29.969,0,60.014,0,90.328,0
	C820.862,636.373,820.862,817.906,820.862,999.901z"/>
</svg>
