<?xml version="1.0" encoding="utf-8"?>
<!-- Generator: Adobe Illustrator 17.0.0, SVG Export Plug-In . SVG Version: 6.00 Build 0)  -->
<!DOCTYPE svg PUBLIC "-//W3C//DTD SVG 1.1//EN" "http://www.w3.org/Graphics/SVG/1.1/DTD/svg11.dtd">
<svg version="1.1" id="Layer_1" xmlns="http://www.w3.org/2000/svg" xmlns:xlink="http://www.w3.org/1999/xlink" x="0px" y="0px"
	 width="20px" height="20px" viewBox="0 0 20 20" enable-background="new 0 0 20 20" xml:space="preserve">
<path fill="#FFFFFF" d="M13.969,13.087l1.111-1.111c0.174-0.174,0.476-0.052,0.476,0.198v5.049c0,0.92-0.747,1.667-1.667,1.667
	H1.667C0.747,18.889,0,18.142,0,17.222V5c0-0.92,0.747-1.667,1.667-1.667h9.497c0.247,0,0.372,0.299,0.198,0.476L10.25,4.92
	C10.198,4.972,10.128,5,10.052,5H1.667v12.222h12.222v-3.941C13.889,13.208,13.917,13.139,13.969,13.087z M19.406,6.08l-9.118,9.118
	l-3.139,0.347c-0.91,0.101-1.684-0.667-1.583-1.583l0.347-3.139l9.118-9.118c0.795-0.795,2.08-0.795,2.872,0l1.5,1.5
	C20.198,4,20.198,5.288,19.406,6.08z M15.976,7.153l-2.017-2.017L7.507,11.59l-0.253,2.267l2.267-0.253L15.976,7.153z M18.226,4.385
	l-1.5-1.5c-0.142-0.142-0.375-0.142-0.514,0l-1.073,1.073l2.017,2.017l1.073-1.073C18.368,4.757,18.368,4.528,18.226,4.385z"/>
</svg>
