<?xml version="1.0" encoding="utf-8"?>
<!-- Generator: Adobe Illustrator 17.0.0, SVG Export Plug-In . SVG Version: 6.00 Build 0)  -->
<!DOCTYPE svg PUBLIC "-//W3C//DTD SVG 1.1//EN" "http://www.w3.org/Graphics/SVG/1.1/DTD/svg11.dtd">
<svg version="1.1" id="Layer_1" xmlns="http://www.w3.org/2000/svg" xmlns:xlink="http://www.w3.org/1999/xlink" x="0px" y="0px"
	 width="20px" height="20px" viewBox="0 0 20 20" enable-background="new 0 0 20 20" xml:space="preserve">
<path fill="#FFFFFF" d="M5.385,0C4.961,0,4.615,0.345,4.615,0.769v2.308c0,0.424,0.345,0.769,0.769,0.769s0.769-0.345,0.769-0.769
	V0.769C6.154,0.345,5.808,0,5.385,0z M14.615,0c-0.424,0-0.769,0.345-0.769,0.769v2.308c0,0.424,0.345,0.769,0.769,0.769
	c0.424,0,0.769-0.345,0.769-0.769V0.769C15.385,0.345,15.039,0,14.615,0z M2.308,1.538C1.034,1.538,0,2.572,0,3.846v13.846
	C0,18.966,1.034,20,2.308,20h15.385C18.966,20,20,18.966,20,17.692V3.846c0-1.274-1.034-2.308-2.308-2.308h-1.538v1.538
	c0,0.848-0.69,1.538-1.538,1.538c-0.849,0-1.538-0.69-1.538-1.538V1.538H6.923v1.538c0,0.848-0.69,1.538-1.538,1.538
	c-0.849,0-1.538-0.69-1.538-1.538V1.538H2.308z M1.538,6.923h16.923v10.769c0,0.424-0.345,0.769-0.769,0.769H2.308
	c-0.424,0-0.769-0.345-0.769-0.769V6.923z M4.952,9.591l-0.385,5.697h1.202l0.12-2.163c0.034-0.71,0.047-1.586,0.072-2.356h0.024
	c0.144,0.744,0.343,1.559,0.529,2.236l0.601,2.188h1.01l0.697-2.212c0.22-0.668,0.463-1.484,0.649-2.212
	c0,0.829,0.023,1.646,0.048,2.332l0.096,2.188h1.25l-0.288-5.697H8.87L8.269,11.49c-0.195,0.635-0.377,1.383-0.529,2.043H7.692
	c-0.127-0.668-0.295-1.384-0.481-2.043L6.659,9.591H4.952z M13.822,11.058c-1.337,0-2.212,0.842-2.212,2.188
	c0,1.337,0.929,2.139,2.139,2.139c1.108,0,2.188-0.697,2.188-2.212C15.938,11.92,15.083,11.057,13.822,11.058z M13.774,11.971
	c0.584,0,0.841,0.641,0.841,1.25c0,0.753-0.334,1.25-0.841,1.25c-0.55,0-0.841-0.539-0.841-1.25
	C12.933,12.612,13.165,11.97,13.774,11.971z"/>
</svg>
