<?xml version="1.0" encoding="utf-8"?>
<!-- Generator: Adobe Illustrator 17.0.0, SVG Export Plug-In . SVG Version: 6.00 Build 0)  -->
<!DOCTYPE svg PUBLIC "-//W3C//DTD SVG 1.1//EN" "http://www.w3.org/Graphics/SVG/1.1/DTD/svg11.dtd">
<svg version="1.1" id="Layer_1" xmlns="http://www.w3.org/2000/svg" xmlns:xlink="http://www.w3.org/1999/xlink" x="0px" y="0px"
	 width="20px" height="20px" viewBox="0 0 20 20" enable-background="new 0 0 20 20" xml:space="preserve">
<path fill="#FFFFFF" d="M5.385,0C4.961,0,4.615,0.345,4.615,0.769v2.308c0,0.424,0.345,0.769,0.769,0.769s0.769-0.345,0.769-0.769
	V0.769C6.154,0.345,5.808,0,5.385,0z M14.615,0c-0.424,0-0.769,0.345-0.769,0.769v2.308c0,0.424,0.345,0.769,0.769,0.769
	c0.424,0,0.769-0.345,0.769-0.769V0.769C15.385,0.345,15.039,0,14.615,0z M2.308,1.538C1.034,1.538,0,2.572,0,3.846v13.846
	C0,18.966,1.034,20,2.308,20h15.385C18.966,20,20,18.966,20,17.692V3.846c0-1.274-1.034-2.308-2.308-2.308h-1.538v1.538
	c0,0.848-0.69,1.538-1.538,1.538c-0.849,0-1.538-0.69-1.538-1.538V1.538H6.923v1.538c0,0.848-0.69,1.538-1.538,1.538
	c-0.849,0-1.538-0.69-1.538-1.538V1.538H2.308z M1.538,6.923h16.923v10.769c0,0.424-0.345,0.769-0.769,0.769H2.308
	c-0.424,0-0.769-0.345-0.769-0.769V6.923z M8.245,9.495c-1.337,0-2.163,0.733-2.163,1.707c0,0.829,0.639,1.368,1.587,1.707
	c0.685,0.237,0.962,0.438,0.962,0.793c0,0.373-0.321,0.625-0.913,0.625c-0.55,0-1.104-0.183-1.442-0.361l-0.24,1.058
	c0.322,0.178,0.959,0.361,1.611,0.361c1.565,0,2.284-0.823,2.284-1.779c0-0.804-0.459-1.335-1.466-1.707
	c-0.745-0.279-1.058-0.429-1.058-0.793c0-0.288,0.259-0.553,0.817-0.553c0.55,0,0.982,0.154,1.202,0.264l0.288-1.034
	C9.373,9.623,8.897,9.495,8.245,9.495z M12.476,11.058c-0.753,0-1.323,0.2-1.611,0.361l0.24,0.841
	c0.271-0.169,0.707-0.312,1.13-0.312c0.635,0,0.769,0.3,0.769,0.529v0.048c-1.465,0-2.428,0.512-2.428,1.587
	c0,0.66,0.484,1.274,1.322,1.274c0.491,0,0.931-0.175,1.202-0.505h0.024l0.072,0.409h1.154c-0.051-0.228-0.072-0.596-0.072-0.986
	v-1.466C14.279,11.855,13.855,11.058,12.476,11.058z M13.029,13.341v0.457c0,0.075-0.007,0.148-0.024,0.216
	c-0.085,0.262-0.336,0.457-0.649,0.457c-0.288,0-0.529-0.151-0.529-0.481C11.827,13.5,12.352,13.341,13.029,13.341z"/>
</svg>
