<?xml version="1.0" encoding="utf-8"?>
<!-- Generator: Adobe Illustrator 17.0.0, SVG Export Plug-In . SVG Version: 6.00 Build 0)  -->
<!DOCTYPE svg PUBLIC "-//W3C//DTD SVG 1.1//EN" "http://www.w3.org/Graphics/SVG/1.1/DTD/svg11.dtd">
<svg version="1.1" id="Layer_1" xmlns="http://www.w3.org/2000/svg" xmlns:xlink="http://www.w3.org/1999/xlink" x="0px" y="0px"
	 width="20px" height="20px" viewBox="0 0 20 20" enable-background="new 0 0 20 20" xml:space="preserve">
<path fill="#FFFFFF" d="M5.385,0C4.961,0,4.615,0.345,4.615,0.769v2.308c0,0.424,0.345,0.769,0.769,0.769s0.769-0.345,0.769-0.769
	V0.769C6.154,0.345,5.808,0,5.385,0z M14.615,0c-0.424,0-0.769,0.345-0.769,0.769v2.308c0,0.424,0.345,0.769,0.769,0.769
	c0.424,0,0.769-0.345,0.769-0.769V0.769C15.385,0.345,15.039,0,14.615,0z M2.308,1.538C1.034,1.538,0,2.572,0,3.846v13.846
	C0,18.966,1.034,20,2.308,20h15.385C18.966,20,20,18.966,20,17.692V3.846c0-1.274-1.034-2.308-2.308-2.308h-1.538v1.538
	c0,0.848-0.69,1.538-1.538,1.538c-0.849,0-1.538-0.69-1.538-1.538V1.538H6.923v1.538c0,0.848-0.69,1.538-1.538,1.538
	c-0.849,0-1.538-0.69-1.538-1.538V1.538H2.308z M1.538,6.923h16.923v10.769c0,0.424-0.345,0.769-0.769,0.769H2.308
	c-0.424,0-0.769-0.345-0.769-0.769V6.923z M10.553,9.375v6.01h1.274v-2.452c0-0.093,0.014-0.212,0.048-0.288
	c0.093-0.237,0.311-0.457,0.649-0.457c0.482,0,0.649,0.372,0.649,0.913v2.284h1.298v-2.404c0-1.252-0.622-1.827-1.442-1.827
	c-0.237,0-0.478,0.067-0.673,0.168c-0.203,0.102-0.369,0.247-0.505,0.433h-0.024v-2.38H10.553z M5.625,9.688v1.082h1.538v4.615
	h1.274v-4.615H10V9.688H5.625z"/>
</svg>
