<?xml version="1.0" encoding="utf-8"?>
<!-- Generator: Adobe Illustrator 17.0.0, SVG Export Plug-In . SVG Version: 6.00 Build 0)  -->
<!DOCTYPE svg PUBLIC "-//W3C//DTD SVG 1.1//EN" "http://www.w3.org/Graphics/SVG/1.1/DTD/svg11.dtd">
<svg version="1.1" id="Layer_1" xmlns="http://www.w3.org/2000/svg" xmlns:xlink="http://www.w3.org/1999/xlink" x="0px" y="0px"
	 width="20px" height="20px" viewBox="0 0 20 20" enable-background="new 0 0 20 20" xml:space="preserve">
<path fill="#FFFFFF" d="M5.385,0C4.961,0,4.615,0.345,4.615,0.769v2.308c0,0.424,0.345,0.769,0.769,0.769s0.769-0.345,0.769-0.769
	V0.769C6.154,0.345,5.808,0,5.385,0z M14.615,0c-0.424,0-0.769,0.345-0.769,0.769v2.308c0,0.424,0.345,0.769,0.769,0.769
	c0.424,0,0.769-0.345,0.769-0.769V0.769C15.385,0.345,15.039,0,14.615,0z M2.308,1.538C1.034,1.538,0,2.572,0,3.846v13.846
	C0,18.966,1.034,20,2.308,20h15.385C18.966,20,20,18.966,20,17.692V3.846c0-1.274-1.034-2.308-2.308-2.308h-1.538v1.538
	c0,0.848-0.69,1.538-1.538,1.538c-0.849,0-1.538-0.69-1.538-1.538V1.538H6.923v1.538c0,0.848-0.69,1.538-1.538,1.538
	c-0.849,0-1.538-0.69-1.538-1.538V1.538H2.308z M1.538,6.923h16.923v10.769c0,0.424-0.345,0.769-0.769,0.769H2.308
	c-0.424,0-0.769-0.345-0.769-0.769V6.923z M5.745,9.591v1.082h1.538v4.615h1.298v-4.615h1.538V9.591H5.745z M10.288,11.154v2.428
	c0,1.278,0.62,1.803,1.466,1.803c0.744,0,1.137-0.419,1.298-0.673h0.024l0.048,0.577h1.13c-0.017-0.348-0.048-0.781-0.048-1.322
	v-2.812h-1.274v2.452c0,0.11-0.014,0.212-0.048,0.288c-0.076,0.204-0.294,0.457-0.649,0.457c-0.457,0-0.649-0.361-0.649-0.962
	v-2.236H10.288z"/>
</svg>
