<?xml version="1.0" encoding="utf-8"?>
<!-- Generator: Adobe Illustrator 17.0.0, SVG Export Plug-In . SVG Version: 6.00 Build 0)  -->
<!DOCTYPE svg PUBLIC "-//W3C//DTD SVG 1.1//EN" "http://www.w3.org/Graphics/SVG/1.1/DTD/svg11.dtd">
<svg version="1.1" id="Layer_1" xmlns="http://www.w3.org/2000/svg" xmlns:xlink="http://www.w3.org/1999/xlink" x="0px" y="0px"
	 width="20px" height="20px" viewBox="0 0 20 20" enable-background="new 0 0 20 20" xml:space="preserve">
<path fill="#FFFFFF" d="M5.385,0C4.961,0,4.615,0.345,4.615,0.769v2.308c0,0.424,0.345,0.769,0.769,0.769s0.769-0.345,0.769-0.769
	V0.769C6.154,0.345,5.808,0,5.385,0z M14.615,0c-0.424,0-0.769,0.345-0.769,0.769v2.308c0,0.424,0.345,0.769,0.769,0.769
	c0.424,0,0.769-0.345,0.769-0.769V0.769C15.385,0.345,15.039,0,14.615,0z M2.308,1.538C1.034,1.538,0,2.572,0,3.846v13.846
	C0,18.966,1.034,20,2.308,20h15.385C18.966,20,20,18.966,20,17.692V3.846c0-1.274-1.034-2.308-2.308-2.308h-1.538v1.538
	c0,0.848-0.69,1.538-1.538,1.538c-0.849,0-1.538-0.69-1.538-1.538V1.538H6.923v1.538c0,0.848-0.69,1.538-1.538,1.538
	c-0.849,0-1.538-0.69-1.538-1.538V1.538H2.308z M1.538,6.923h16.923v10.769c0,0.424-0.345,0.769-0.769,0.769H2.308
	c-0.424,0-0.769-0.345-0.769-0.769V6.923z M4.543,9.591l1.37,5.697v0.024h1.394l0.553-2.476c0.135-0.575,0.235-1.112,0.337-1.755
	c0.068,0.652,0.178,1.179,0.288,1.755l0.481,2.476h1.394l1.466-5.721h-1.322l-0.457,2.332c-0.118,0.686-0.252,1.361-0.337,1.995
	c-0.085-0.634-0.186-1.255-0.312-1.923L8.942,9.591h-1.37l-0.481,2.332c-0.144,0.711-0.292,1.402-0.385,2.019
	c-0.093-0.575-0.21-1.31-0.337-1.995L5.938,9.591H4.543z M13.942,11.058c-1.438,0-2.091,1.162-2.091,2.212
	c0,1.294,0.807,2.115,2.212,2.115c0.558,0,1.091-0.086,1.514-0.264l-0.168-0.865c-0.347,0.118-0.714,0.168-1.154,0.168
	c-0.601,0-1.12-0.26-1.154-0.793h2.644c0.017-0.093,0.048-0.285,0.048-0.505C15.793,12.101,15.279,11.058,13.942,11.058z
	 M13.87,11.923c0.592,0,0.745,0.528,0.745,0.841h-1.538C13.111,12.426,13.329,11.923,13.87,11.923z"/>
</svg>
